<svg width="375" height="812" viewBox="0 0 375 812" fill="none" xmlns="http://www.w3.org/2000/svg">
<g clip-path="url(#clip0_1_22)">
<rect width="375" height="812" fill="#003552"/>
<circle cx="335" cy="69" r="162" fill="white" fill-opacity="0.15"/>
<circle cx="335" cy="91" r="161.5" stroke="white" stroke-opacity="0.43"/>
<path d="M187.111 293C258.417 293 316.222 259.626 316.222 218.458C316.222 177.289 258.417 143.916 187.111 143.916C115.805 143.916 58 177.289 58 218.458C58 259.626 115.805 293 187.111 293Z" fill="#F5F5F5" fill-opacity="0.8"/>
<path d="M136.118 267.459L166.402 249.973C166.651 249.828 166.858 249.619 167.002 249.369C167.146 249.119 167.222 248.836 167.222 248.547C167.222 248.258 167.146 247.975 167.002 247.725C166.858 247.474 166.651 247.266 166.402 247.121L136.118 229.635C135.423 229.235 134.635 229.025 133.832 229.025C133.03 229.025 132.242 229.235 131.546 229.635L101.263 247.121C101.013 247.266 100.806 247.474 100.663 247.725C100.519 247.975 100.443 248.258 100.443 248.547C100.443 248.836 100.519 249.119 100.663 249.369C100.806 249.619 101.013 249.828 101.263 249.973L131.546 267.459C132.242 267.859 133.03 268.069 133.832 268.069C134.635 268.069 135.423 267.859 136.118 267.459Z" fill="#E0E0E0"/>
<path d="M178.333 243.103L241.156 206.828C241.498 206.629 241.783 206.345 241.981 206.002C242.178 205.659 242.282 205.27 242.282 204.875C242.282 204.479 242.178 204.09 241.981 203.747C241.783 203.404 241.498 203.12 241.156 202.921L190.929 173.628C190.124 173.158 189.209 172.911 188.278 172.911C187.346 172.911 186.431 173.158 185.626 173.628L122.821 209.891C122.478 210.09 122.194 210.374 121.996 210.717C121.798 211.06 121.694 211.449 121.694 211.844C121.694 212.24 121.798 212.629 121.996 212.972C122.194 213.315 122.478 213.599 122.821 213.798L173.054 243.091C173.854 243.558 174.764 243.805 175.691 243.807C176.618 243.809 177.53 243.566 178.333 243.103Z" fill="#E0E0E0"/>
<path d="M228.695 258.816C244.265 258.816 256.887 251.531 256.887 242.543C256.887 233.556 244.265 226.27 228.695 226.27C213.125 226.27 200.503 233.556 200.503 242.543C200.503 251.531 213.125 258.816 228.695 258.816Z" fill="#E0E0E0"/>
<path d="M104.751 89.9948V114.917L83.1812 127.354V102.45L104.751 89.9948ZM106.059 87.7265L81.8674 101.696V129.646L83.1812 130.4L107.367 116.437V88.5101L106.059 87.75V87.7265Z" fill="#E0E0E0"/>
<path d="M106.059 90.7607V115.665L84.4892 128.114V103.204L106.059 90.7607ZM107.367 88.4924L83.1812 102.45V130.377L107.367 116.413V88.4865V88.4924Z" fill="#EBEBEB"/>
<path d="M103.82 110.027L85.5202 120.591L90.9229 106.521L94.6701 110.969L98.4938 105.519L103.82 110.027Z" fill="#E0E0E0"/>
<path d="M96.9806 102.895C97.633 101.765 97.6342 100.544 96.9832 100.168C96.3323 99.7925 95.2757 100.404 94.6233 101.534C93.9709 102.664 93.9697 103.885 94.6207 104.26C95.2716 104.636 96.3282 104.025 96.9806 102.895Z" fill="#E0E0E0"/>
<path d="M115.438 53.7077V75.9607L96.1666 87.0843V64.8371L115.438 53.7077Z" fill="#FAFAFA" fill-opacity="0.72"/>
<path d="M113.353 54.9155V74.7588L96.1666 84.6746V64.8371L113.353 54.9155ZM114.396 53.1067L95.1237 64.248V86.4951L96.1666 87.0843L115.438 75.9607V53.7136L114.396 53.1244V53.1067Z" fill="#E0E0E0"/>
<path d="M114.396 55.5164V75.3598L97.2094 85.2814V65.4263L114.396 55.5047V55.5164ZM115.438 53.7018L96.1666 64.8371V87.0843L115.438 75.9607V53.7136V53.7018Z" fill="#EBEBEB"/>
<path d="M112.61 70.8703L98.0343 79.2895L102.335 68.0835L105.322 71.6244L108.368 67.2822L112.61 70.8703Z" fill="#E0E0E0"/>
<path d="M107.573 63.8827C107.547 64.3442 107.413 64.7932 107.182 65.1934C106.951 65.5936 106.629 65.9338 106.241 66.1864C105.505 66.6106 104.91 66.2629 104.91 65.4145C104.936 64.953 105.069 64.504 105.301 64.1038C105.532 63.7036 105.854 63.3635 106.241 63.1109C106.984 62.6867 107.573 63.0343 107.573 63.8827Z" fill="#E0E0E0"/>
<path d="M173.389 235.892V240.104C173.408 240.315 173.482 240.517 173.606 240.689C173.729 240.861 173.897 240.997 174.09 241.082C174.614 241.35 175.194 241.489 175.781 241.489C176.369 241.489 176.949 241.35 177.472 241.082C177.666 240.997 177.834 240.861 177.957 240.689C178.081 240.517 178.155 240.315 178.173 240.104V235.892H173.389Z" fill="#EBEBEB"/>
<path d="M231.918 202.114V206.327C231.936 206.538 232.011 206.74 232.134 206.912C232.257 207.084 232.425 207.22 232.619 207.305C233.143 207.569 233.722 207.707 234.31 207.707C234.897 207.707 235.476 207.569 236.001 207.305C236.195 207.22 236.362 207.084 236.486 206.912C236.609 206.74 236.684 206.538 236.702 206.327V202.114H231.918Z" fill="#EBEBEB"/>
<path d="M137.909 215.318V219.536C137.928 219.747 138.002 219.949 138.126 220.121C138.249 220.293 138.417 220.429 138.611 220.514C139.135 220.778 139.714 220.916 140.301 220.916C140.889 220.916 141.468 220.778 141.992 220.514C142.186 220.429 142.354 220.293 142.477 220.121C142.601 219.949 142.675 219.747 142.694 219.536V215.318H137.909Z" fill="#EBEBEB"/>
<path d="M186.51 126.612L138.151 152.971V198.838L198.129 166.676L186.51 126.612Z" fill="#455A64"/>
<path d="M226.409 166.676L223.387 164.938L194.075 148.181C193.828 148.041 193.621 147.84 193.474 147.597C193.326 147.354 193.243 147.078 193.233 146.794C193.222 146.51 193.284 146.228 193.413 145.975C193.542 145.722 193.733 145.506 193.969 145.348L195.866 144.075L193.51 127.867C193.349 126.777 192.948 125.736 192.337 124.819C191.726 123.902 190.919 123.132 189.975 122.564L185.656 119.972C185.448 119.848 185.21 119.782 184.968 119.779C184.726 119.777 184.487 119.839 184.277 119.959C184.066 120.078 183.891 120.252 183.769 120.461C183.647 120.67 183.582 120.908 183.582 121.15V180.191C183.584 181.211 183.858 182.211 184.376 183.09C184.894 183.968 185.637 184.692 186.528 185.187L227.305 207.959C227.636 208.143 228.009 208.24 228.389 208.24C228.768 208.24 229.141 208.143 229.473 207.959L229.632 207.87C229.961 207.667 230.232 207.382 230.42 207.044C230.608 206.706 230.705 206.325 230.704 205.938V174.087C230.702 172.584 230.304 171.107 229.55 169.806C228.796 168.504 227.713 167.425 226.409 166.676Z" fill="#455A64"/>
<path d="M131.758 151.557V151.151C131.759 150.183 132.013 149.233 132.496 148.394C132.979 147.556 133.673 146.859 134.51 146.373L181.219 119.235C181.735 118.93 182.323 118.769 182.922 118.769C183.521 118.769 184.109 118.93 184.625 119.235L189.68 122.281C190.008 122.477 190.28 122.754 190.469 123.086C190.658 123.418 190.758 123.794 190.758 124.176C190.758 124.558 190.658 124.933 190.469 125.265C190.28 125.597 190.008 125.875 189.68 126.07L140.514 155.145L131.758 151.557Z" fill="#37474F"/>
<path d="M193.209 146.614V192.947L225.779 207.847C226.449 208.154 227.182 208.297 227.918 208.267C228.654 208.236 229.373 208.032 230.015 207.67L234.928 204.895V165.916L193.209 146.614Z" fill="#263238"/>
<path d="M192.502 228.833L218.267 214.387C219.518 213.689 220.564 212.676 221.3 211.447C222.036 210.218 222.436 208.817 222.459 207.385C222.483 205.952 222.13 204.539 221.436 203.286C220.741 202.033 219.73 200.985 218.502 200.247L192.862 184.728C192.792 184.689 192.714 184.668 192.635 184.668C192.555 184.668 192.477 184.689 192.408 184.728L152.556 206.757C152.488 206.797 152.431 206.854 152.392 206.923C152.352 206.992 152.331 207.069 152.331 207.149C152.331 207.228 152.352 207.306 152.392 207.375C152.431 207.443 152.488 207.501 152.556 207.541L187.907 228.751C188.599 229.163 189.388 229.387 190.193 229.401C190.999 229.416 191.795 229.22 192.502 228.833Z" fill="#263238"/>
<path d="M189.804 226.86C189.805 227.215 189.899 227.564 190.077 227.872C190.255 228.179 190.51 228.435 190.818 228.614C191.125 228.793 191.474 228.888 191.829 228.89C192.184 228.892 192.534 228.802 192.844 228.627L224.659 210.893C225.586 210.374 226.359 209.618 226.896 208.701C227.434 207.785 227.717 206.741 227.717 205.679V202.55L191.235 224.503C190.807 224.739 190.451 225.085 190.202 225.506C189.953 225.927 189.822 226.406 189.821 226.895L189.804 226.86Z" fill="#455A64"/>
<path d="M192.237 223.914L225.944 205.378C226.468 205.089 226.908 204.668 227.22 204.157C227.532 203.646 227.706 203.062 227.723 202.464C227.74 201.865 227.601 201.272 227.319 200.744C227.037 200.215 226.622 199.77 226.114 199.451L193.592 179.042L152.821 201.572L189.951 223.914C190.298 224.116 190.692 224.223 191.094 224.223C191.496 224.223 191.89 224.116 192.237 223.914Z" fill="#37474F"/>
<path d="M190.858 222.399L224.895 203.092L192.638 177.263L151.867 199.799L189.468 222.382C189.677 222.507 189.917 222.575 190.161 222.578C190.405 222.581 190.646 222.519 190.858 222.399Z" fill="#263238"/>
<path d="M189.804 210.716V219.524C189.805 219.88 189.899 220.229 190.077 220.536C190.255 220.844 190.51 221.1 190.818 221.279C191.125 221.457 191.474 221.553 191.829 221.555C192.184 221.557 192.534 221.466 192.844 221.292L224.895 203.092C225.76 202.603 226.479 201.892 226.979 201.032C227.479 200.173 227.742 199.196 227.74 198.202V185.729L192.013 206.828C191.338 207.227 190.779 207.796 190.391 208.478C190.004 209.16 189.801 209.932 189.804 210.716Z" fill="#455A64"/>
<path d="M192.272 207.635L226.315 188.563C226.742 188.325 227.099 187.978 227.35 187.558C227.601 187.138 227.737 186.659 227.745 186.17C227.752 185.681 227.631 185.198 227.394 184.77C227.156 184.342 226.811 183.984 226.391 183.732L192.638 163.3L151.867 185.835L188.083 207.582C188.714 207.96 189.435 208.165 190.171 208.174C190.907 208.184 191.632 207.997 192.272 207.635Z" fill="#37474F"/>
<path d="M203.048 142.673C202.223 142.193 201.28 141.954 200.325 141.985C199.371 142.015 198.445 142.312 197.651 142.844L195.843 144.057L193.946 145.33C193.71 145.488 193.518 145.704 193.389 145.957C193.26 146.211 193.198 146.492 193.209 146.776C193.22 147.06 193.303 147.337 193.45 147.58C193.598 147.822 193.805 148.023 194.052 148.164L223.363 164.92L226.309 166.593C226.356 166.593 226.397 166.658 226.45 166.681C227.778 167.471 228.872 168.598 229.621 169.949C230.369 171.3 230.745 172.826 230.71 174.37V205.967C230.711 206.354 230.614 206.735 230.426 207.074C230.238 207.412 229.967 207.696 229.638 207.9L236.879 203.811C237.724 203.335 238.427 202.643 238.917 201.805C239.407 200.968 239.665 200.015 239.665 199.045V168.408C239.665 167.063 239.313 165.742 238.643 164.576C237.973 163.41 237.009 162.439 235.848 161.762L203.048 142.673Z" fill="#455A64"/>
<path d="M235.818 161.774L203.048 142.673C202.223 142.193 201.28 141.954 200.325 141.985C199.371 142.015 198.445 142.312 197.651 142.844L195.843 144.057L193.946 145.33C193.71 145.488 193.518 145.704 193.389 145.957C193.26 146.211 193.198 146.492 193.209 146.776C193.22 147.06 193.303 147.337 193.45 147.58C193.598 147.822 193.805 148.023 194.052 148.164L223.363 164.92L226.309 166.593C226.356 166.593 226.397 166.658 226.45 166.681C227.885 167.492 229.033 168.727 229.738 170.216L238.605 164.543C237.929 163.396 236.969 162.442 235.818 161.774Z" fill="#37474F"/>
<path d="M160.08 111.812C160.08 111.812 158.796 102.002 174.939 102.002C188.396 102.002 187.901 116.513 179.299 120.685L160.08 111.812Z" fill="#263238"/>
<path d="M161.412 121.121C164.525 121.121 167.05 118.596 167.05 115.482C167.05 112.368 164.525 109.844 161.412 109.844C158.298 109.844 155.773 112.368 155.773 115.482C155.773 118.596 158.298 121.121 161.412 121.121Z" fill="#263238"/>
<path d="M186.145 115.471C186.146 116.368 185.881 117.246 185.383 117.993C184.885 118.74 184.176 119.323 183.347 119.667C182.518 120.011 181.605 120.101 180.725 119.926C179.844 119.751 179.035 119.319 178.4 118.684C177.766 118.05 177.333 117.241 177.159 116.36C176.984 115.48 177.074 114.567 177.418 113.738C177.762 112.908 178.345 112.2 179.092 111.702C179.839 111.204 180.716 110.939 181.614 110.94C182.816 110.94 183.968 111.417 184.818 112.267C185.668 113.117 186.145 114.269 186.145 115.471Z" fill="#263238"/>
<path d="M162.443 128.733C165.557 128.733 168.081 126.209 168.081 123.095C168.081 119.981 165.557 117.456 162.443 117.456C159.329 117.456 156.804 119.981 156.804 123.095C156.804 126.209 159.329 128.733 162.443 128.733Z" fill="#263238"/>
<path d="M168.717 132.25C171.831 132.25 174.356 129.726 174.356 126.612C174.356 123.498 171.831 120.973 168.717 120.973C165.603 120.973 163.079 123.498 163.079 126.612C163.079 129.726 165.603 132.25 168.717 132.25Z" fill="#263238"/>
<path d="M211.721 215.017L223.133 230.177L219.963 232.681C219.963 232.681 215.391 231.726 213.783 225.681C212.828 222.183 212.139 218.619 211.721 215.017Z" fill="#FFA8A7"/>
<path d="M210.678 213.986C210.678 213.986 207.514 216.855 208.911 219.43C210.307 222.005 212.74 224.067 212.817 227.455C212.893 230.842 214.584 236.881 218.337 237.836C222.09 238.79 225.767 237.482 225.696 236.151C225.625 234.819 223.121 230.177 223.121 230.177C223.121 230.177 219.669 232.315 217.124 230.253C214.578 228.191 213.989 219.507 213.989 219.507L210.678 213.986Z" fill="#BA68C8"/>
<path opacity="0.2" d="M210.678 213.986C210.678 213.986 207.514 216.855 208.911 219.43C210.307 222.005 212.74 224.067 212.817 227.455C212.893 230.842 214.584 236.881 218.337 237.836C222.09 238.79 225.767 237.482 225.696 236.151C225.625 234.819 223.121 230.177 223.121 230.177C223.121 230.177 219.669 232.315 217.124 230.253C214.578 228.191 213.989 219.507 213.989 219.507L210.678 213.986Z" fill="black"/>
<path d="M191.235 167.047C191.235 167.047 216.646 177.799 218.709 178.83C220.771 179.861 224.376 181.776 224.011 190.024C223.646 198.273 221.578 218.829 221.578 218.829L207.644 192.034L171.663 174.912L191.235 167.047Z" fill="#BA68C8"/>
<path opacity="0.5" d="M191.235 167.047C191.235 167.047 216.646 177.799 218.709 178.83C220.771 179.861 224.376 181.776 224.011 190.024C223.646 198.273 221.578 218.829 221.578 218.829L207.644 192.034L171.663 174.912L191.235 167.047Z" fill="black"/>
<path d="M222.597 208.224C222.055 214.08 221.578 218.829 221.578 218.829L207.644 192.034L181.991 179.844L187.818 175.283C196.019 179.408 207.927 185.376 211.479 187.196C216.01 189.512 217.406 196.075 221.307 205.19C221.719 206.156 222.155 207.175 222.597 208.224Z" fill="#BA68C8"/>
<path opacity="0.7" d="M222.597 208.224C222.055 214.08 221.578 218.829 221.578 218.829L207.644 192.034L181.991 179.844L187.818 175.283C196.019 179.408 207.927 185.376 211.479 187.196C216.01 189.512 217.406 196.075 221.307 205.19C221.719 206.156 222.155 207.175 222.597 208.224Z" fill="black"/>
<path d="M189.132 172.526L186.51 176.491L188.561 176.803L189.132 172.526Z" fill="#BA68C8"/>
<path opacity="0.7" d="M189.132 172.526L186.51 176.491L188.561 176.803L189.132 172.526Z" fill="black"/>
<path d="M222.98 236.151C222.98 236.151 222.615 236.74 222.615 239.827C222.615 242.914 223.793 243.498 225.354 244.052C226.916 244.605 231.376 247.863 232.619 249.295C233.862 250.727 238.829 252.241 243.737 251.34C248.644 250.438 249.693 247.215 247.325 245.159C244.956 243.103 238.228 239.267 238.228 239.267L222.98 236.151Z" fill="#BA68C8"/>
<path d="M164.133 173.392L175.068 170.888C175.068 170.888 205.429 186.112 209.953 188.434C214.478 190.755 215.88 197.313 219.781 206.427C222.727 213.285 226.544 222.694 229.072 228.344C229.072 228.344 227.275 233.117 221.578 231.921C219.645 227.708 216.234 223.937 211.279 217.25C206.984 211.453 205.311 206.333 204.657 203.263C204.467 202.357 204.025 201.523 203.382 200.857C202.739 200.19 201.921 199.72 201.022 199.498C196.008 198.279 185.797 195.639 175.015 191.922C159.833 186.666 164.133 173.392 164.133 173.392Z" fill="#BA68C8"/>
<path opacity="0.5" d="M164.133 173.392L175.068 170.888C175.068 170.888 205.429 186.112 209.953 188.434C214.478 190.755 215.88 197.313 219.781 206.427C222.727 213.285 226.544 222.694 229.072 228.344C229.072 228.344 227.275 233.117 221.578 231.921C219.645 227.708 216.234 223.937 211.279 217.25C206.984 211.453 205.311 206.333 204.657 203.263C204.467 202.357 204.025 201.523 203.382 200.857C202.739 200.19 201.921 199.72 201.022 199.498C196.008 198.279 185.797 195.639 175.015 191.922C159.833 186.666 164.133 173.392 164.133 173.392Z" fill="black"/>
<path d="M229.072 228.321C229.903 230.182 230.598 231.638 231.069 232.445C232.972 235.756 238.534 239.344 240.496 241.035C242.458 242.726 242.853 243.392 241.003 244.806C236.289 248.435 232.165 244.476 229.514 241.936C227.736 240.311 225.786 238.884 223.699 237.683C223.545 237.597 223.412 237.478 223.31 237.334C223.208 237.19 223.139 237.026 223.11 236.852C222.819 235.134 222.302 233.461 221.572 231.879C227.275 233.093 229.072 228.321 229.072 228.321Z" fill="#FFA8A7"/>
<path d="M175.728 183.773L194.847 194.809L226.627 176.432L207.514 165.173L175.728 183.773Z" fill="#EBEBEB"/>
<path d="M192.791 180.633L199.961 176.491L195.466 173.899L188.295 178.041L192.791 180.633Z" fill="#E0E0E0"/>
<path d="M195.66 192.051L185.998 186.366L204.875 174.942L195.66 192.051Z" fill="#E0E0E0"/>
<path d="M195.094 157.956L202.754 161.538C205.037 162.116 207.289 162.812 209.5 163.624C209.5 163.624 214.802 165.804 215.061 167.229C215.321 168.655 211.067 172.09 207.349 170.417C206.37 169.904 205.325 169.525 204.244 169.292C203.249 169.185 200.279 168.702 198.135 166.676L191.942 164.996C191.942 164.996 188.761 158.84 195.094 157.956Z" fill="#FFA8A7"/>
<path d="M200.073 168.62C200.963 169.568 203.484 171.96 204.038 172.656C204.592 173.351 205.888 171.566 203.608 168.914C201.634 168.191 199.778 167.181 198.099 165.916C198.688 166.865 199.348 167.769 200.073 168.62Z" fill="#FFA8A7"/>
<path d="M179.452 131.366C181.209 131.088 183.008 131.441 184.529 132.363C186.05 133.285 187.194 134.717 187.759 136.404C188.565 138.839 189.085 141.36 189.309 143.916C189.975 151.793 190.157 155.729 190.157 155.729L198.07 159.317C198.07 159.317 193.798 159.523 194.087 165.556L184.23 163.07L179.452 131.366Z" fill="#FFA8A7"/>
<path d="M189.539 146.691C189.468 145.831 189.391 144.906 189.309 143.916C189.085 141.36 188.565 138.839 187.759 136.404C187.194 134.717 186.05 133.285 184.529 132.363C183.008 131.441 181.209 131.088 179.452 131.366L182.345 150.579L189.539 146.691Z" fill="#BA68C8"/>
<path opacity="0.2" d="M189.539 146.691C189.468 145.831 189.391 144.906 189.309 143.916C189.085 141.36 188.565 138.839 187.759 136.404C187.194 134.717 186.05 133.285 184.529 132.363C183.008 131.441 181.209 131.088 179.452 131.366L182.345 150.579L189.539 146.691Z" fill="black"/>
<path d="M190.157 155.729C189.262 155.999 188.451 156.494 187.801 157.166C187.801 157.166 188.755 155.352 190.092 154.81L190.157 155.729Z" fill="#F28F8F"/>
<path d="M166.967 134.495L161.412 136.852V153.131C163.153 157.297 164.096 161.754 164.192 166.269V174.329C164.192 174.329 175.54 178.371 184.342 173.999C188.608 171.878 191.241 167.041 191.241 167.041C191.241 167.041 186.528 164.284 186.528 160.913C186.619 158.28 186.933 155.658 187.465 153.077C188.491 152.057 189.269 150.815 189.738 149.446C190.207 148.077 190.354 146.618 190.169 145.183C189.544 139.809 179.428 131.361 179.428 131.361L175.658 131.879L166.967 134.495Z" fill="#BA68C8"/>
<path d="M166.967 134.495L175.681 131.885V121.339H166.967V134.495Z" fill="#FFA8A7"/>
<path d="M175.681 131.885C173.899 131.224 172.27 130.208 170.893 128.899C169.515 127.589 168.418 126.013 167.669 124.267V121.321H175.681V131.885Z" fill="#F28F8F"/>
<path d="M177.714 107.051C177.714 107.051 185.685 107.517 184.696 121.144C184.242 127.449 182.769 130.713 177.914 130.471C172.417 130.2 164.611 126.423 165.123 115.641C165.636 104.86 177.714 107.051 177.714 107.051Z" fill="#FFA8A7"/>
<path d="M166.967 121.339C166.967 121.339 169.153 121.928 169.153 118.782C169.153 118.782 178.863 118.122 181.007 108.489C181.007 108.489 180.047 105.602 173.984 105.602C167.922 105.602 162.826 110.963 164.41 118.334L166.967 121.339Z" fill="#263238"/>
<path d="M178.857 118.411V123.095L181.597 122.252L178.857 118.411Z" fill="#F28F8F"/>
<path d="M174.739 118.905C174.739 119.094 174.795 119.279 174.899 119.436C175.004 119.593 175.153 119.715 175.328 119.787C175.502 119.86 175.694 119.878 175.879 119.842C176.064 119.805 176.234 119.714 176.368 119.58C176.501 119.447 176.592 119.277 176.629 119.092C176.666 118.907 176.647 118.715 176.575 118.54C176.503 118.366 176.38 118.217 176.223 118.112C176.066 118.007 175.882 117.951 175.693 117.951C175.44 117.951 175.197 118.052 175.018 118.231C174.839 118.41 174.739 118.652 174.739 118.905Z" fill="#263238"/>
<path d="M181.007 118.246C181.007 118.434 181.063 118.619 181.168 118.776C181.273 118.933 181.422 119.055 181.597 119.127C181.771 119.2 181.963 119.219 182.148 119.182C182.333 119.145 182.503 119.054 182.637 118.921C182.77 118.787 182.861 118.617 182.898 118.432C182.935 118.247 182.916 118.055 182.844 117.88C182.771 117.706 182.649 117.557 182.492 117.452C182.335 117.347 182.151 117.291 181.962 117.291C181.836 117.291 181.712 117.316 181.597 117.364C181.481 117.412 181.376 117.482 181.287 117.571C181.198 117.659 181.128 117.765 181.08 117.88C181.032 117.996 181.007 118.12 181.007 118.246Z" fill="#263238"/>
<path d="M183.122 116.254L181.255 115.147C181.255 115.147 181.974 114.404 182.686 114.852C182.892 115.014 183.044 115.235 183.122 115.485C183.2 115.736 183.2 116.004 183.122 116.254Z" fill="#263238"/>
<path d="M178.615 124.65C177.529 124.727 176.447 124.437 175.546 123.825C175.546 123.825 175.334 125.445 176.689 125.752C178.044 126.058 178.615 124.65 178.615 124.65Z" fill="#F28F8F"/>
<path d="M167.739 121.692C167.771 120.898 167.624 120.107 167.309 119.377C167.156 118.924 166.874 118.525 166.497 118.231C166.12 117.937 165.665 117.76 165.188 117.721C162.737 117.651 162.407 120.007 162.443 120.85C162.531 123.053 164.31 125.434 167.633 125.522L167.739 121.692Z" fill="#FFA8A7"/>
<path d="M175.681 131.885L178.25 135.226C178.54 135.601 178.744 136.036 178.848 136.498C178.952 136.961 178.953 137.441 178.851 137.905C178.749 138.368 178.547 138.804 178.259 139.18C177.971 139.557 177.604 139.867 177.184 140.086C176.043 140.683 174.731 140.864 173.471 140.6C172.212 140.336 171.083 139.642 170.279 138.637L166.967 134.513L175.681 131.885Z" fill="#FFA8A7"/>
<path d="M175.728 172.067L183.016 176.032C184.132 175.945 185.253 175.945 186.369 176.032C187.653 176.185 191.082 176.809 191.96 176.851C192.838 176.892 191.995 178.542 189.68 178.394C189.68 178.394 194.906 180.786 195.089 182.224C195.271 183.661 190.9 186.937 187.247 185.093C186.293 184.534 185.266 184.112 184.195 183.838C183.199 183.691 180.259 183.102 178.197 180.969L172.087 179.019C172.087 179.019 169.365 172.697 175.728 172.067Z" fill="#FFA8A7"/>
<path d="M161.412 136.858C161.412 136.858 165.836 139.915 165.1 149.313C164.657 155.013 164.657 160.739 165.1 166.44L175.728 172.067C174.583 172.823 173.649 173.858 173.012 175.073C172.375 176.289 172.057 177.647 172.087 179.019C172.087 179.019 156.804 175.873 155.891 172.314C154.978 168.755 154.642 151.728 154.642 148.747C154.642 145.766 155.885 139.226 161.412 136.858Z" fill="#FFA8A7"/>
<path d="M154.642 148.777C154.642 150.031 154.707 153.808 154.842 158.015C158.009 159.303 161.533 159.407 164.77 158.309C164.77 155.688 164.84 152.6 165.1 149.313C165.836 139.915 161.412 136.858 161.412 136.858C155.885 139.226 154.642 145.813 154.642 148.777Z" fill="#BA68C8"/>
<path opacity="0.2" d="M154.642 148.777C154.642 150.031 154.707 153.808 154.842 158.015C158.009 159.303 161.533 159.407 164.77 158.309C164.77 155.688 164.84 152.6 165.1 149.313C165.836 139.915 161.412 136.858 161.412 136.858C155.885 139.226 154.642 145.813 154.642 148.777Z" fill="black"/>
<path d="M165.088 166.44C163.918 166.412 162.755 166.625 161.671 167.064C162.646 166.298 163.799 165.791 165.023 165.592L165.088 166.44Z" fill="#F28F8F"/>
<path d="M231.058 155.375L227.764 177.127C227.764 177.127 227.764 177.127 227.764 177.163L194.77 196.305C194.762 196.309 194.752 196.311 194.743 196.311C194.733 196.31 194.724 196.307 194.716 196.301C194.709 196.296 194.702 196.288 194.698 196.28C194.694 196.271 194.693 196.261 194.694 196.252L197.917 175.16C197.988 174.711 198.155 174.282 198.407 173.904C198.659 173.526 198.991 173.206 199.378 172.968L229.585 154.391C229.744 154.295 229.927 154.246 230.113 154.251C230.299 154.255 230.479 154.312 230.634 154.415C230.788 154.518 230.91 154.663 230.985 154.833C231.06 155.004 231.085 155.191 231.058 155.375Z" fill="#FAFAFA"/>
<path d="M194.7 196.305L177.095 186.095C176.69 185.858 176.353 185.519 176.118 185.112C175.884 184.705 175.759 184.243 175.758 183.773L194.876 194.809L194.7 196.305Z" fill="#E0E0E0"/>
<path d="M211.951 176.338C211.951 177.888 213.047 178.518 214.39 177.74C215.098 177.278 215.688 176.655 216.111 175.922C216.533 175.189 216.777 174.367 216.823 173.522C216.823 171.966 215.733 171.342 214.39 172.114C213.68 172.577 213.09 173.201 212.666 173.935C212.243 174.669 211.997 175.492 211.951 176.338Z" fill="#E0E0E0"/>
<path opacity="0.2" d="M179.452 154.25C179.452 154.25 172.788 156.065 169.253 151.057C169.253 151.057 171.539 157.52 179.452 154.25Z" fill="black"/>
<path d="M160.97 109.485C160.97 109.485 159.349 105.36 158.377 105.861C157.405 106.362 159.379 108.978 159.379 108.978C159.379 108.978 156.068 107.682 155.791 108.448C155.514 109.214 160.021 110.94 160.021 110.94L160.97 109.485Z" fill="#263238"/>
<path d="M174.597 197.112L171.575 195.345L142.263 178.589C142.017 178.448 141.81 178.246 141.663 178.003C141.516 177.76 141.434 177.483 141.424 177.2C141.414 176.916 141.476 176.634 141.606 176.381C141.735 176.128 141.927 175.913 142.163 175.755L144.054 174.482L141.698 158.28C141.538 157.189 141.139 156.148 140.527 155.231C139.916 154.314 139.108 153.544 138.163 152.977L133.844 150.391C133.636 150.265 133.398 150.197 133.156 150.194C132.913 150.191 132.673 150.252 132.462 150.372C132.251 150.492 132.075 150.666 131.954 150.877C131.832 151.087 131.769 151.326 131.77 151.569V210.628C131.773 211.647 132.047 212.648 132.565 213.526C133.083 214.404 133.825 215.128 134.716 215.624L175.493 238.396C175.821 238.583 176.192 238.683 176.57 238.689C176.948 238.694 177.321 238.603 177.655 238.425L177.814 238.337C178.139 238.131 178.406 237.845 178.59 237.507C178.773 237.168 178.867 236.789 178.863 236.404V204.524C178.863 203.023 178.47 201.549 177.721 200.248C176.972 198.947 175.895 197.866 174.597 197.112Z" fill="#263238"/>
<path d="M151.236 173.115C150.412 172.633 149.469 172.393 148.514 172.422C147.56 172.451 146.633 172.749 145.84 173.28L144.025 174.494L142.134 175.767C141.898 175.924 141.706 176.14 141.576 176.393C141.447 176.646 141.384 176.927 141.394 177.211C141.404 177.495 141.487 177.772 141.634 178.015C141.781 178.258 141.987 178.46 142.234 178.6L171.545 195.356L174.491 197.03L174.633 197.124C175.956 197.91 177.047 199.033 177.794 200.379C178.542 201.724 178.919 203.244 178.886 204.783V236.404C178.888 236.791 178.791 237.172 178.603 237.511C178.415 237.849 178.143 238.133 177.814 238.337L185.061 234.254C185.906 233.776 186.609 233.083 187.097 232.244C187.586 231.405 187.843 230.452 187.842 229.481V198.844C187.845 197.5 187.494 196.179 186.825 195.014C186.156 193.848 185.192 192.879 184.03 192.204L151.236 173.115Z" fill="#455A64"/>
<path d="M184.006 192.216L151.236 173.115C150.412 172.633 149.469 172.393 148.514 172.422C147.56 172.451 146.633 172.749 145.84 173.28L144.025 174.494L142.134 175.767C141.898 175.924 141.706 176.14 141.576 176.393C141.447 176.646 141.384 176.927 141.394 177.211C141.404 177.495 141.487 177.772 141.634 178.015C141.781 178.258 141.987 178.46 142.234 178.6L171.545 195.356L174.491 197.03L174.633 197.124C176.068 197.935 177.218 199.17 177.926 200.659L186.764 194.991C186.1 193.843 185.15 192.887 184.006 192.216Z" fill="#37474F"/>
<path d="M161.364 212.083V250.462L133.385 234.307V195.928L161.364 212.083Z" fill="#D71920"/>
<path opacity="0.4" d="M161.364 212.083V250.462L133.385 234.307V195.928L161.364 212.083Z" fill="black"/>
<path d="M163.574 210.852V249.236L161.364 250.462V212.083L163.574 210.852Z" fill="#D71920"/>
<path d="M135.594 227.007V265.385L107.62 249.236V210.852L135.594 227.007Z" fill="#D71920"/>
<path opacity="0.4" d="M135.594 227.007V265.385L107.62 249.236V210.852L135.594 227.007Z" fill="black"/>
<path d="M137.809 225.781V264.16L135.594 265.386V227.007L137.809 225.781Z" fill="#D71920"/>
<path d="M135.594 230.065L163.574 213.915V210.852L135.594 227.007V230.065Z" fill="#D71920"/>
<path d="M135.594 265.385L163.574 249.236V227.189L135.594 243.345V265.385Z" fill="#D71920"/>
<path d="M135.594 227.007L163.574 210.852L135.594 194.702L107.62 210.852L135.594 227.007Z" fill="#D71920"/>
<path opacity="0.2" d="M135.594 227.007L163.574 210.852L135.594 194.702L107.62 210.852L135.594 227.007Z" fill="black"/>
<path d="M137.809 242.638L161.364 229.039V215.182L137.809 228.78V242.638Z" fill="#D71920"/>
<path opacity="0.6" d="M137.809 242.638L161.364 229.039V215.182L137.809 228.78V242.638Z" fill="white"/>
<path d="M149.345 227.761C149.345 228.1 149.446 228.432 149.634 228.713C149.823 228.995 150.09 229.215 150.404 229.345C150.717 229.475 151.062 229.509 151.394 229.443C151.727 229.376 152.032 229.213 152.272 228.973C152.512 228.734 152.675 228.428 152.741 228.095C152.807 227.763 152.773 227.418 152.644 227.105C152.514 226.792 152.294 226.524 152.012 226.335C151.73 226.147 151.399 226.046 151.06 226.046C150.605 226.046 150.169 226.227 149.847 226.549C149.526 226.87 149.345 227.306 149.345 227.761Z" fill="white"/>
<path d="M137.809 259.883L161.364 246.285V232.427L137.809 246.025V259.883Z" fill="#D71920"/>
<path opacity="0.6" d="M137.809 259.883L161.364 246.285V232.427L137.809 246.025V259.883Z" fill="white"/>
<path d="M149.345 245.006C149.345 245.345 149.446 245.677 149.634 245.959C149.823 246.24 150.09 246.46 150.404 246.59C150.717 246.72 151.062 246.754 151.394 246.688C151.727 246.621 152.032 246.458 152.272 246.218C152.512 245.979 152.675 245.673 152.741 245.341C152.807 245.008 152.773 244.663 152.644 244.35C152.514 244.037 152.294 243.769 152.012 243.58C151.73 243.392 151.399 243.292 151.06 243.292C150.605 243.292 150.169 243.472 149.847 243.794C149.526 244.115 149.345 244.551 149.345 245.006Z" fill="white"/>
<path d="M128.265 208.242C128.665 207.547 129.253 206.979 129.961 206.604C132.619 205.072 136.925 205.072 139.583 206.604C140.291 206.979 140.88 207.547 141.279 208.242H141.574V209.385C141.574 210.392 140.914 211.394 139.583 212.16C136.925 213.697 132.619 213.697 129.961 212.16C128.63 211.394 127.964 210.392 127.964 209.385V208.242H128.265Z" fill="#263238"/>
<path d="M129.961 211.017C132.619 212.554 136.925 212.554 139.583 211.017C142.24 209.479 142.24 206.999 139.583 205.461C136.925 203.923 132.619 203.929 129.961 205.461C127.304 206.993 127.304 209.485 129.961 211.017Z" fill="#37474F"/>
<path d="M134.916 208.242H134.628C134.275 208.242 133.936 208.101 133.686 207.852C133.436 207.602 133.296 207.263 133.296 206.91V175.684H136.242V206.91C136.242 207.263 136.102 207.602 135.852 207.852C135.602 208.101 135.264 208.242 134.911 208.242H134.916Z" fill="#263238"/>
<path d="M121.583 188.021C121.625 187.862 121.678 187.697 121.737 187.538L125.908 174.27H143.636L147.808 187.538C147.866 187.697 147.919 187.862 147.961 188.021C148.55 190.343 147.283 192.788 144.196 194.573C138.988 197.572 130.551 197.572 125.342 194.573C122.261 192.788 121.006 190.331 121.583 188.021Z" fill="#D71920"/>
<path opacity="0.4" d="M121.583 188.021C121.625 187.862 121.678 187.697 121.737 187.538L125.908 174.27H143.636L147.808 187.538C147.866 187.697 147.919 187.862 147.961 188.021C148.55 190.343 147.283 192.788 144.196 194.573C138.988 197.572 130.551 197.572 125.342 194.573C122.261 192.788 121.006 190.331 121.583 188.021Z" fill="white"/>
<path d="M134.769 180.179C139.715 180.179 143.725 177.866 143.725 175.012C143.725 172.159 139.715 169.845 134.769 169.845C129.823 169.845 125.814 172.159 125.814 175.012C125.814 177.866 129.823 180.179 134.769 180.179Z" fill="#D71920"/>
<path d="M134.769 169.839V170.888C136.791 170.842 138.791 171.314 140.578 172.261C141.928 173.039 142.676 174.028 142.676 175.006C142.676 175.984 141.928 176.968 140.578 177.752C138.776 178.655 136.788 179.125 134.772 179.125C132.756 179.125 130.768 178.655 128.966 177.752C127.617 176.968 126.868 175.984 126.868 175.006C126.868 174.028 127.617 173.039 128.966 172.261C130.751 171.315 132.749 170.842 134.769 170.888V169.834V169.839ZM134.769 169.834C132.565 169.792 130.388 170.313 128.441 171.348C124.942 173.369 124.942 176.65 128.441 178.659C130.403 179.655 132.572 180.173 134.772 180.173C136.972 180.173 139.141 179.655 141.103 178.659C144.602 176.644 144.602 173.357 141.103 171.348C139.155 170.312 136.975 169.791 134.769 169.834Z" fill="#D71920"/>
<path opacity="0.2" d="M134.769 169.839V170.888C136.791 170.842 138.791 171.314 140.578 172.261C141.928 173.039 142.676 174.028 142.676 175.006C142.676 175.984 141.928 176.968 140.578 177.752C138.776 178.655 136.788 179.125 134.772 179.125C132.756 179.125 130.768 178.655 128.966 177.752C127.617 176.968 126.868 175.984 126.868 175.006C126.868 174.028 127.617 173.039 128.966 172.261C130.751 171.315 132.749 170.842 134.769 170.888V169.834V169.839ZM134.769 169.834C132.565 169.792 130.388 170.313 128.441 171.348C124.942 173.369 124.942 176.65 128.441 178.659C130.403 179.655 132.572 180.173 134.772 180.173C136.972 180.173 139.141 179.655 141.103 178.659C144.602 176.644 144.602 173.357 141.103 171.348C139.155 170.312 136.975 169.791 134.769 169.834Z" fill="white"/>
<path d="M307.491 88.5278L228.642 43.0024C227.741 42.4781 226.922 42.5193 226.35 43.0024L223.64 44.8819L225.478 47.162V110.793C225.478 113.12 226.898 115.824 228.642 116.837L306.713 161.892L306.86 164.366L309.736 162.398C310.065 162.088 310.32 161.706 310.48 161.282C310.641 160.859 310.702 160.404 310.661 159.953V94.555C310.655 92.2395 309.241 89.5353 307.491 88.5278Z" fill="#BA68C8" fill-opacity="0.4"/>
<path opacity="0.3" d="M307.491 88.5278L228.642 43.0024C227.741 42.4781 226.922 42.5193 226.35 43.0024L223.64 44.8819L225.478 47.162V110.793C225.478 113.12 226.898 115.824 228.642 116.837L306.713 161.892L306.86 164.366L309.736 162.398C310.065 162.088 310.32 161.706 310.48 161.282C310.641 160.859 310.702 160.404 310.661 159.953V94.555C310.655 92.2395 309.241 89.5353 307.491 88.5278Z" fill="black"/>
<path d="M304.81 164.189L225.955 118.664C224.188 117.656 222.791 114.952 222.791 112.619V47.2209C222.791 44.8937 224.211 43.8214 225.955 44.8642L304.81 90.3836C306.578 91.397 307.968 94.1013 307.968 96.4285V161.827C307.968 164.13 306.554 165.197 304.81 164.189Z" fill="#AC141A"/>
<path d="M290.081 155.688L295.578 158.863L256.469 62.4687L250.306 58.9101L290.081 155.688Z" fill="#BA68C8" fill-opacity="0.4"/>
<path opacity="0.2" d="M290.081 155.688L295.578 158.863L256.469 62.4687L250.306 58.9101L290.081 155.688Z" fill="white"/>
<path d="M302.459 162.846L304.374 163.901L265.259 67.5061L262.69 66.0685L302.459 162.846Z" fill="#BA68C8" fill-opacity="0.4"/>
<path opacity="0.2" d="M302.459 162.846L304.374 163.901L265.259 67.5061L262.69 66.0685L302.459 162.846Z" fill="white"/>
<path d="M233.503 58.3916C233.503 59.729 232.56 60.2711 231.399 59.6053C230.793 59.2089 230.288 58.6765 229.924 58.0506C229.56 57.4246 229.347 56.7223 229.302 55.9996C229.302 54.6562 230.244 54.1142 231.399 54.7859C232.007 55.1806 232.514 55.7124 232.88 56.3387C233.245 56.9649 233.458 57.668 233.503 58.3916Z" fill="#455A64"/>
<path d="M246.394 65.8152C246.301 65.8147 246.209 65.7904 246.129 65.7445L236.065 59.9293C236.005 59.8945 235.952 59.8482 235.91 59.7929C235.867 59.7376 235.836 59.6746 235.818 59.6073C235.8 59.54 235.796 59.4698 235.805 59.4007C235.814 59.3316 235.836 59.265 235.871 59.2047C235.906 59.1443 235.952 59.0914 236.008 59.049C236.063 59.0065 236.126 58.9754 236.193 58.9574C236.26 58.9393 236.331 58.9347 236.4 58.9438C236.469 58.9528 236.535 58.9754 236.596 59.0102L246.659 64.8371C246.719 64.8719 246.772 64.9183 246.815 64.9735C246.857 65.0288 246.888 65.0919 246.906 65.1592C246.924 65.2265 246.929 65.2967 246.92 65.3658C246.911 65.4349 246.888 65.5015 246.853 65.5618C246.806 65.6407 246.738 65.7056 246.657 65.7501C246.577 65.7946 246.486 65.817 246.394 65.8152Z" fill="#455A64"/>
<path d="M301.411 149.395C301.278 149.397 301.148 149.362 301.034 149.295L228.942 107.658C228.856 107.608 228.78 107.542 228.719 107.463C228.658 107.383 228.613 107.293 228.587 107.196C228.561 107.1 228.554 106.999 228.567 106.9C228.58 106.801 228.613 106.705 228.663 106.618C228.712 106.532 228.779 106.456 228.858 106.395C228.937 106.334 229.028 106.289 229.125 106.263C229.221 106.237 229.322 106.23 229.421 106.243C229.52 106.256 229.616 106.289 229.702 106.338L301.805 147.975C301.951 148.059 302.065 148.188 302.13 148.343C302.195 148.499 302.206 148.671 302.162 148.833C302.118 148.995 302.022 149.139 301.888 149.24C301.754 149.342 301.59 149.396 301.422 149.395H301.411Z" fill="#455A64"/>
<path d="M301.411 95.4741C301.342 95.4738 301.275 95.4555 301.216 95.4211L299.278 94.2958C299.233 94.2696 299.193 94.2348 299.162 94.1933C299.13 94.1518 299.107 94.1045 299.094 94.0542C299.081 94.0038 299.078 93.9513 299.085 93.8997C299.093 93.8482 299.11 93.7985 299.136 93.7537C299.162 93.7076 299.196 93.6671 299.237 93.6345C299.278 93.602 299.325 93.5781 299.376 93.5644C299.427 93.5506 299.48 93.5472 299.532 93.5545C299.583 93.5617 299.633 93.5794 299.678 93.6064L301.605 94.72C301.69 94.7578 301.76 94.8248 301.8 94.9089C301.841 94.993 301.851 95.0889 301.827 95.1794C301.804 95.2699 301.749 95.3492 301.673 95.4032C301.597 95.4571 301.504 95.4823 301.411 95.4741Z" fill="#455A64"/>
<path d="M301.411 96.8881C301.342 96.8878 301.275 96.8696 301.216 96.8351L299.284 95.7216C299.239 95.6954 299.199 95.6606 299.168 95.6191C299.136 95.5776 299.113 95.5304 299.1 95.48C299.087 95.4296 299.084 95.3771 299.091 95.3255C299.098 95.274 299.116 95.2244 299.142 95.1795C299.167 95.1334 299.202 95.0929 299.243 95.0603C299.284 95.0278 299.331 95.0039 299.382 94.9902C299.433 94.9764 299.485 94.973 299.537 94.9803C299.589 94.9875 299.639 95.0052 299.684 95.0322L301.611 96.1458C301.689 96.1879 301.751 96.2554 301.787 96.3372C301.822 96.419 301.829 96.5104 301.805 96.5965C301.782 96.6825 301.731 96.7582 301.659 96.8111C301.587 96.8641 301.5 96.8912 301.411 96.8881Z" fill="#455A64"/>
<path d="M301.411 98.308C301.342 98.3077 301.275 98.2895 301.216 98.255L299.284 97.1415C299.239 97.1153 299.199 97.0805 299.168 97.039C299.136 96.9975 299.113 96.9503 299.1 96.8999C299.087 96.8495 299.084 96.797 299.091 96.7454C299.098 96.6939 299.116 96.6443 299.142 96.5994C299.167 96.5533 299.202 96.5128 299.243 96.4802C299.284 96.4477 299.331 96.4238 299.382 96.4101C299.433 96.3963 299.485 96.3929 299.537 96.4002C299.589 96.4074 299.639 96.4251 299.684 96.4521L301.611 97.5657C301.689 97.6078 301.751 97.6753 301.787 97.7571C301.822 97.8389 301.829 97.9303 301.805 98.0164C301.782 98.1024 301.731 98.1781 301.659 98.231C301.587 98.284 301.5 98.3111 301.411 98.308Z" fill="#455A64"/>
<path d="M257.883 91.2969V102.238C257.883 102.341 257.905 102.444 257.947 102.538C257.99 102.633 258.051 102.717 258.129 102.786C258.206 102.855 258.297 102.907 258.396 102.938C258.494 102.97 258.599 102.98 258.701 102.968L268.641 101.79C268.778 101.774 268.908 101.719 269.016 101.631C269.124 101.544 269.205 101.429 269.25 101.298C269.295 101.167 269.302 101.025 269.27 100.891C269.238 100.756 269.169 100.632 269.071 100.535L259.132 90.7607C259.028 90.6566 258.896 90.586 258.752 90.558C258.608 90.53 258.459 90.5459 258.325 90.6038C258.19 90.6616 258.076 90.7586 257.997 90.8822C257.918 91.0058 257.878 91.1503 257.883 91.2969Z" fill="#FAFAFA"/>
<path d="M259.98 123.831L229.685 106.338C229.598 106.289 229.502 106.256 229.403 106.243C229.304 106.23 229.203 106.237 229.107 106.263C229.01 106.289 228.92 106.334 228.841 106.395C228.761 106.456 228.695 106.532 228.645 106.618C228.595 106.705 228.563 106.801 228.55 106.9C228.537 106.999 228.543 107.1 228.569 107.196C228.595 107.293 228.64 107.383 228.701 107.463C228.762 107.542 228.838 107.608 228.925 107.658L259.98 125.593V123.831Z" fill="#EBEBEB"/>
<path d="M262.077 125.746C262.077 127.083 261.141 127.625 259.98 126.959C259.369 126.56 258.86 126.022 258.496 125.39C258.131 124.757 257.921 124.047 257.883 123.318C257.883 121.981 258.819 121.439 259.98 122.14C260.587 122.535 261.093 123.067 261.458 123.693C261.822 124.32 262.034 125.023 262.077 125.746Z" fill="#FAFAFA"/>
<path d="M235.3 115.506V118.381C235.3 118.408 235.306 118.435 235.318 118.46C235.33 118.484 235.346 118.506 235.367 118.524C235.387 118.541 235.411 118.555 235.437 118.563C235.463 118.571 235.491 118.573 235.518 118.57L238.128 118.269C238.163 118.264 238.197 118.25 238.225 118.227C238.253 118.204 238.274 118.173 238.286 118.139C238.298 118.105 238.299 118.068 238.291 118.032C238.283 117.997 238.265 117.965 238.24 117.939L235.63 115.365C235.602 115.338 235.567 115.32 235.529 115.313C235.492 115.306 235.453 115.31 235.417 115.325C235.382 115.34 235.352 115.366 235.331 115.398C235.31 115.43 235.299 115.468 235.3 115.506Z" fill="#FAFAFA"/>
<path d="M241.733 119.436V122.311C241.734 122.337 241.74 122.364 241.751 122.388C241.763 122.412 241.779 122.433 241.799 122.451C241.818 122.469 241.842 122.482 241.867 122.491C241.892 122.499 241.919 122.502 241.945 122.499L244.561 122.199C244.597 122.194 244.631 122.179 244.659 122.156C244.687 122.133 244.708 122.103 244.72 122.069C244.731 122.034 244.733 121.998 244.725 121.962C244.717 121.927 244.699 121.895 244.673 121.869L242.063 119.294C242.036 119.268 242.001 119.25 241.963 119.243C241.925 119.236 241.886 119.24 241.851 119.255C241.816 119.27 241.786 119.295 241.765 119.328C241.744 119.36 241.733 119.397 241.733 119.436Z" fill="#FAFAFA"/>
<path d="M244.732 124.143C244.702 124.144 244.671 124.139 244.642 124.127C244.614 124.116 244.588 124.099 244.566 124.078C244.544 124.057 244.526 124.031 244.515 124.003C244.503 123.974 244.497 123.944 244.497 123.913V120.708C244.497 120.646 244.521 120.586 244.566 120.542C244.61 120.498 244.67 120.473 244.732 120.473C244.795 120.473 244.855 120.498 244.899 120.542C244.943 120.586 244.968 120.646 244.968 120.708V123.913C244.968 123.944 244.962 123.974 244.95 124.003C244.938 124.031 244.92 124.057 244.899 124.078C244.877 124.099 244.851 124.116 244.822 124.127C244.793 124.139 244.763 124.144 244.732 124.143Z" fill="#FAFAFA"/>
<path d="M231.776 115.883V113.008C231.777 112.98 231.771 112.953 231.76 112.928C231.748 112.902 231.732 112.88 231.711 112.861C231.691 112.843 231.666 112.829 231.64 112.821C231.614 112.813 231.586 112.81 231.558 112.813L228.942 113.149C228.907 113.154 228.873 113.169 228.845 113.192C228.817 113.215 228.796 113.245 228.784 113.28C228.772 113.314 228.771 113.351 228.779 113.386C228.787 113.421 228.805 113.454 228.83 113.479L231.441 116.048C231.469 116.079 231.507 116.101 231.548 116.109C231.59 116.117 231.633 116.111 231.671 116.093C231.709 116.074 231.74 116.043 231.759 116.005C231.778 115.968 231.784 115.925 231.776 115.883Z" fill="#FAFAFA"/>
<path d="M228.777 114.846C228.715 114.846 228.655 114.821 228.611 114.777C228.567 114.733 228.542 114.673 228.542 114.61V111.382C228.542 111.319 228.567 111.259 228.611 111.215C228.655 111.171 228.715 111.146 228.777 111.146C228.84 111.146 228.9 111.171 228.944 111.215C228.988 111.259 229.013 111.319 229.013 111.382V114.587C229.016 114.62 229.013 114.653 229.002 114.684C228.992 114.716 228.975 114.745 228.953 114.769C228.931 114.793 228.904 114.813 228.873 114.826C228.843 114.839 228.81 114.846 228.777 114.846Z" fill="#FAFAFA"/>
<path d="M298.583 152.376C298.512 152.376 298.445 152.348 298.395 152.299C298.345 152.249 298.317 152.182 298.317 152.111V150.933C298.319 150.887 298.332 150.841 298.356 150.802C298.38 150.762 298.413 150.729 298.453 150.706C298.494 150.683 298.539 150.671 298.585 150.67C298.632 150.67 298.677 150.681 298.718 150.703L299.702 151.292C299.763 151.327 299.807 151.384 299.826 151.451C299.845 151.519 299.836 151.591 299.802 151.652C299.766 151.713 299.708 151.757 299.64 151.776C299.572 151.795 299.499 151.786 299.437 151.752L298.848 151.41V152.117C298.846 152.186 298.818 152.252 298.768 152.301C298.718 152.349 298.652 152.376 298.583 152.376Z" fill="#FAFAFA"/>
<path d="M299.572 155.334C299.525 155.334 299.478 155.321 299.437 155.299L298.453 154.709C298.412 154.687 298.378 154.653 298.354 154.613C298.33 154.573 298.318 154.527 298.317 154.48V153.419C298.317 153.349 298.345 153.281 298.395 153.232C298.445 153.182 298.512 153.154 298.583 153.154C298.653 153.154 298.72 153.182 298.77 153.232C298.82 153.281 298.848 153.349 298.848 153.419V154.327L299.702 154.821C299.763 154.856 299.807 154.913 299.826 154.981C299.845 155.048 299.836 155.12 299.802 155.181C299.783 155.226 299.751 155.264 299.71 155.291C299.669 155.319 299.621 155.333 299.572 155.334Z" fill="#FAFAFA"/>
<path d="M301.664 156.542C301.616 156.54 301.569 156.526 301.528 156.501L300.509 155.911C300.449 155.875 300.406 155.816 300.388 155.748C300.37 155.68 300.38 155.607 300.415 155.546C300.45 155.486 300.508 155.443 300.575 155.425C300.643 155.408 300.714 155.417 300.774 155.452L301.399 155.811V155.222C301.399 155.152 301.427 155.084 301.476 155.035C301.526 154.985 301.594 154.957 301.664 154.957C301.734 154.957 301.802 154.985 301.851 155.035C301.901 155.084 301.929 155.152 301.929 155.222V156.259C301.928 156.305 301.915 156.35 301.892 156.389C301.868 156.429 301.834 156.461 301.794 156.483C301.756 156.513 301.712 156.534 301.664 156.542Z" fill="#FAFAFA"/>
<path d="M301.664 154.144C301.594 154.144 301.526 154.116 301.476 154.066C301.427 154.016 301.399 153.949 301.399 153.879V152.877L300.81 152.524C300.779 152.506 300.753 152.483 300.732 152.455C300.711 152.428 300.695 152.396 300.686 152.363C300.677 152.329 300.675 152.294 300.679 152.259C300.684 152.225 300.695 152.191 300.712 152.161C300.73 152.131 300.753 152.105 300.781 152.083C300.808 152.062 300.84 152.047 300.873 152.038C300.907 152.029 300.942 152.026 300.977 152.031C301.011 152.035 301.045 152.047 301.075 152.064L301.817 152.494C301.858 152.517 301.893 152.55 301.917 152.59C301.941 152.631 301.953 152.677 301.953 152.724V153.902C301.95 153.937 301.94 153.971 301.924 154.002C301.908 154.033 301.885 154.061 301.859 154.083C301.832 154.106 301.801 154.123 301.767 154.133C301.734 154.143 301.699 154.147 301.664 154.144Z" fill="#FAFAFA"/>
<path d="M294.847 152.624C294.8 152.624 294.753 152.612 294.712 152.588L290.97 150.426C290.931 150.402 290.899 150.368 290.877 150.328C290.854 150.288 290.842 150.242 290.841 150.196V146.661C290.842 146.615 290.854 146.57 290.877 146.53C290.899 146.49 290.931 146.456 290.97 146.432C291.011 146.408 291.056 146.396 291.103 146.396C291.15 146.396 291.195 146.408 291.236 146.432L294.977 148.594C295.018 148.617 295.052 148.65 295.076 148.69C295.099 148.731 295.112 148.777 295.112 148.824V152.359C295.111 152.429 295.082 152.495 295.033 152.544C294.984 152.594 294.917 152.622 294.847 152.624ZM291.371 150.043L294.582 151.899V148.953L291.395 147.086L291.371 150.043Z" fill="#FAFAFA"/>
<path d="M217.748 36.4037L194.711 23.1944C194.541 23.0682 194.334 23 194.122 23C193.91 23 193.704 23.0682 193.533 23.1944L192.137 24.1843L193.085 25.3626V42.3897C193.094 42.9953 193.245 43.5904 193.527 44.1267C193.808 44.6631 194.212 45.1256 194.706 45.4769L217.342 58.4387L217.418 59.7113L218.885 58.7039C219.055 58.5449 219.187 58.3492 219.269 58.1317C219.352 57.9142 219.384 57.6806 219.362 57.4489V39.5027C219.356 38.8956 219.207 38.2985 218.926 37.76C218.646 37.2215 218.242 36.7568 217.748 36.4037Z" fill="#BA68C8" fill-opacity="0.4"/>
<path opacity="0.3" d="M217.748 36.4037L194.711 23.1944C194.541 23.0682 194.334 23 194.122 23C193.91 23 193.704 23.0682 193.533 23.1944L192.137 24.1843L193.085 25.3626V42.3897C193.094 42.9953 193.245 43.5904 193.527 44.1267C193.808 44.6631 194.212 45.1256 194.706 45.4769L217.342 58.4387L217.418 59.7113L218.885 58.7039C219.055 58.5449 219.187 58.3492 219.269 58.1317C219.352 57.9142 219.384 57.6806 219.362 57.4489V39.5027C219.356 38.8956 219.207 38.2985 218.926 37.76C218.646 37.2215 218.242 36.7568 217.748 36.4037Z" fill="black"/>
<path d="M216.369 59.5994L193.333 46.3902C192.839 46.0388 192.436 45.5763 192.154 45.0399C191.873 44.5036 191.721 43.9085 191.713 43.3029V25.3626C191.713 24.1842 192.437 23.6245 193.333 24.143L216.369 37.3464C216.862 37.6996 217.266 38.1634 217.547 38.7005C217.828 39.2377 217.98 39.8332 217.99 40.4395V58.3562C217.99 59.5699 217.265 60.1238 216.369 59.5994Z" fill="#D71920"/>
<path d="M197.186 31.0658C197.186 31.7492 196.709 32.0261 196.114 31.655C195.8 31.4518 195.54 31.1771 195.353 30.8534C195.167 30.5297 195.06 30.1663 195.041 29.7932C195.041 29.1097 195.519 28.8328 196.114 29.204C196.427 29.4071 196.688 29.6819 196.874 30.0056C197.061 30.3293 197.168 30.6927 197.186 31.0658Z" fill="#455A64"/>
<path d="M203.779 34.8601C203.731 34.8603 203.685 34.8482 203.643 34.8247L198.5 31.8435C198.465 31.8281 198.434 31.8055 198.408 31.7772C198.382 31.7489 198.363 31.7156 198.351 31.6793C198.34 31.643 198.336 31.6046 198.34 31.5666C198.344 31.5287 198.356 31.492 198.375 31.4591C198.394 31.4261 198.42 31.3975 198.451 31.3753C198.482 31.353 198.517 31.3376 198.555 31.3299C198.592 31.3223 198.631 31.3226 198.668 31.3309C198.705 31.3392 198.74 31.3553 198.771 31.378L203.914 34.3239C203.976 34.3608 204.021 34.4201 204.039 34.4893C204.058 34.5585 204.049 34.6323 204.015 34.6951C203.994 34.7412 203.961 34.7808 203.919 34.8098C203.878 34.8388 203.829 34.8562 203.779 34.8601Z" fill="#455A64"/>
<path d="M201.935 39.0726V44.6698C201.935 44.7225 201.947 44.7745 201.969 44.8224C201.99 44.8704 202.022 44.9132 202.062 44.9482C202.101 44.9832 202.147 45.0095 202.197 45.0255C202.248 45.0414 202.301 45.0467 202.353 45.041L207.432 44.4518C207.502 44.4439 207.569 44.4162 207.625 44.3718C207.681 44.3275 207.722 44.2683 207.746 44.2012C207.769 44.134 207.773 44.0616 207.757 43.9924C207.741 43.9231 207.706 43.8597 207.656 43.8096L202.577 38.8075C202.524 38.7554 202.457 38.7199 202.385 38.7056C202.312 38.6913 202.236 38.6988 202.168 38.7271C202.099 38.7554 202.041 38.8032 201.999 38.8647C201.958 38.9262 201.935 38.9985 201.935 39.0726Z" fill="#FAFAFA"/>
<path d="M217.748 64.2774L194.712 51.0682C194.54 50.9437 194.334 50.8766 194.122 50.8766C193.911 50.8766 193.704 50.9437 193.533 51.0682L192.143 52.0344L193.091 53.2128V70.234C193.1 70.8396 193.251 71.4347 193.533 71.971C193.814 72.5073 194.218 72.9699 194.712 73.3212L217.348 86.283L217.424 87.5497L218.891 86.5422C219.061 86.3833 219.192 86.1876 219.275 85.9701C219.358 85.7526 219.39 85.519 219.368 85.2873V67.3647C219.359 66.7592 219.207 66.1645 218.926 65.6283C218.644 65.0921 218.241 64.6294 217.748 64.2774Z" fill="#BA68C8" fill-opacity="0.4"/>
<path opacity="0.3" d="M217.748 64.2774L194.712 51.0682C194.54 50.9437 194.334 50.8766 194.122 50.8766C193.911 50.8766 193.704 50.9437 193.533 51.0682L192.143 52.0344L193.091 53.2128V70.234C193.1 70.8396 193.251 71.4347 193.533 71.971C193.814 72.5073 194.218 72.9699 194.712 73.3212L217.348 86.283L217.424 87.5497L218.891 86.5422C219.061 86.3833 219.192 86.1876 219.275 85.9701C219.358 85.7526 219.39 85.519 219.368 85.2873V67.3647C219.359 66.7592 219.207 66.1645 218.926 65.6283C218.644 65.0921 218.241 64.6294 217.748 64.2774Z" fill="black"/>
<path d="M216.369 87.4731L193.333 74.2639C192.84 73.9106 192.437 73.4469 192.155 72.9097C191.874 72.3726 191.722 71.777 191.713 71.1707V53.2363C191.713 52.058 192.437 51.4688 193.333 52.0167L216.369 65.226C216.863 65.5773 217.267 66.0399 217.548 66.5762C217.83 67.1125 217.981 67.7076 217.99 68.3133V86.2535C217.99 87.4437 217.265 87.9916 216.369 87.4731Z" fill="#D71920"/>
<path d="M197.186 58.9454C197.186 59.6289 196.709 59.9058 196.114 59.5641C195.8 59.3609 195.54 59.0862 195.353 58.7625C195.167 58.4388 195.06 58.0754 195.041 57.7023C195.041 57.0188 195.519 56.7419 196.114 57.1131C196.423 57.3133 196.682 57.5834 196.868 57.9017C197.054 58.2199 197.163 58.5774 197.186 58.9454Z" fill="#455A64"/>
<path d="M203.779 62.7338C203.731 62.7341 203.685 62.7219 203.643 62.6985L198.5 59.7231C198.465 59.7078 198.434 59.6852 198.408 59.6569C198.382 59.6286 198.363 59.5952 198.351 59.5589C198.34 59.5226 198.336 59.4842 198.34 59.4463C198.344 59.4083 198.356 59.3717 198.375 59.3387C198.394 59.3057 198.42 59.2772 198.451 59.2549C198.482 59.2327 198.517 59.2172 198.555 59.2096C198.592 59.2019 198.631 59.2022 198.668 59.2105C198.705 59.2188 198.74 59.2349 198.771 59.2577L203.914 62.2035C203.976 62.2404 204.021 62.2997 204.039 62.3689C204.058 62.4382 204.049 62.5119 204.015 62.5747C203.994 62.6205 203.961 62.6596 203.919 62.6877C203.878 62.7157 203.829 62.7317 203.779 62.7338Z" fill="#455A64"/>
<path d="M206.955 67.1938L202.088 68.1777L201.911 72.4846C201.718 72.3898 201.499 72.3606 201.288 72.4013C201.076 72.4421 200.884 72.5506 200.74 72.7105C200.596 72.8704 200.508 73.0729 200.489 73.2873C200.47 73.5018 200.522 73.7164 200.636 73.8988C200.751 74.0812 200.921 74.2214 201.123 74.2981C201.324 74.3748 201.544 74.3838 201.751 74.3238C201.958 74.2639 202.139 74.1381 202.268 73.9657C202.397 73.7933 202.466 73.5836 202.465 73.3684L202.748 69.4268L206.283 68.5902L206.318 72.3668C206.166 72.2992 205.998 72.2715 205.832 72.2863C205.666 72.3011 205.506 72.358 205.368 72.4516C205.23 72.5452 205.118 72.6723 205.042 72.8212C204.967 72.97 204.93 73.1356 204.936 73.3024C204.942 73.4692 204.991 73.6316 205.077 73.7745C205.163 73.9174 205.284 74.0361 205.429 74.1193C205.574 74.2025 205.737 74.2475 205.904 74.2501C206.071 74.2527 206.236 74.2129 206.383 74.1343C206.535 74.053 206.663 73.9337 206.755 73.7881C206.847 73.6425 206.899 73.4755 206.907 73.3036L206.955 67.1938Z" fill="#FAFAFA"/>
</g>
<defs>
<clipPath id="clip0_1_22">
<rect width="375" height="812" fill="white"/>
</clipPath>
</defs>
</svg>
